# xmcd CD database file
#
# Track frame offsets:
#	182
#	14480
#	32730
#	53920
#	77427
#	96550
#	127727
#	155640
#	182077
#	199632
#	223785
#	241202
#	267045
#	295057
#	316035
#	328257
#
# Disc length: 4625 seconds
#
# Revision: 2
# Processed by: cddbd v1.5.2PL0 Copyright (c) Steve Scherf et al.
# Submitted via: CDex 1.51
#
DISCID=dc120f10
DTITLE=Jim Hall - Vol. 218 -  Jim Hall
DYEAR=1961
DGENRE=Jazz
TTITLE0=Stella By Starlight
TTITLE1=Stompin' At The Savoy
TTITLE2=Things Ain't What Thay Used To Be
TTITLE3=Thanks For The Memory
TTITLE4=I'm Getting Sentimental Over You
TTITLE5=My Funny Valentine
TTITLE6=Time After Time
TTITLE7=Polka Dots And Moonbeams
TTITLE8=Tangerine
TTITLE9=Romain
TTITLE10=Seven Come Eleven
TTITLE11=When You Wish Upon A Star
TTITLE12=Funkallero
TTITLE13=Off Center
TTITLE14=Time Enough
TTITLE15=Abstraction
EXTD=YEAR: 1961
EXTT0=
EXTT1=
EXTT2=
EXTT3=
EXTT4=
EXTT5=
EXTT6=
EXTT7=
EXTT8=
EXTT9=
EXTT10=
EXTT11=
EXTT12=
EXTT13=
EXTT14=
EXTT15=
PLAYORDER=
